<?xml version="1.0" encoding="UTF-8"?>
<svg width="565px" height="103px" viewBox="0 0 565 103" version="1.1" xmlns="http://www.w3.org/2000/svg" xmlns:xlink="http://www.w3.org/1999/xlink">
    <!-- Generator: Sketch 64 (93537) - https://sketch.com -->
    <title>Logo-main</title>
    <desc>Created with Sketch.</desc>
    <defs>
        <linearGradient x1="0.0111051958%" y1="49.994438%" x2="100.011079%" y2="49.994438%" id="linearGradient-1">
            <stop stop-color="#EC0C43" offset="0%"></stop>
            <stop stop-color="#FBB03B" offset="100%"></stop>
        </linearGradient>
    </defs>
    <g id="Page-1" stroke="none" stroke-width="1" fill="none" fill-rule="evenodd">
        <g id="Logo-main" fill-rule="nonzero">
            <path d="M20.81,34.91 C23.8379554,33.2690099 27.236297,32.4323361 30.68,32.48 C33.6814032,32.4488456 36.6468964,33.1345088 39.33,34.48 C40.8956456,35.2899102 42.320572,36.3467869 43.55,37.61 C44.9899467,39.0404361 47.1203565,39.5228917 49.0360853,38.8523866 C50.9518141,38.1818815 52.3163715,36.4761874 52.55,34.46 C52.7308435,32.8569192 52.1841224,31.2571177 51.06,30.1 C49.279938,28.268241 47.2085243,26.7442482 44.93,25.59 C40.5399167,23.4102776 35.6907157,22.3162924 30.79,22.4 C25.2652103,22.3064131 19.8063154,23.6100811 14.92,26.19 C10.3751337,28.6392089 6.59591187,32.2973018 4,36.76 C1.31256622,41.4210448 -0.0692067468,46.7201441 -8.8817842e-16,52.1 C-0.0680463842,57.4828782 1.31358696,62.7848962 4,67.45 C6.62402265,71.9312645 10.4292905,75.6050777 15,78.07 C19.8743512,80.687708 25.3380008,82.0131681 30.87,81.92 C35.774328,82.0029671 40.6247575,80.887334 45,78.67 C47.2883767,77.4879036 49.368947,75.940986 51.16,74.09 C52.2684344,72.9372777 52.8007166,71.3477729 52.61,69.76 C52.3616814,67.7689621 51.0042889,66.0916734 49.1087905,65.4336616 C47.213292,64.7756498 45.1085909,65.251092 43.68,66.66 C42.4411292,67.9448083 40.9983356,69.015922 39.41,69.83 C36.7288904,71.1810137 33.7620357,71.8669917 30.76,71.83 C27.316872,71.8834216 23.9179126,71.0500395 20.89,69.41 C17.9789241,67.8231895 15.5868105,65.4310759 14,62.52 C12.2909264,59.3165971 11.4270381,55.730256 11.49,52.1 C11.4351302,48.5088558 12.2991459,44.9632931 14,41.8 C15.5652593,38.8999858 17.9284633,36.5090202 20.81,34.91 Z" id="Path" fill="#0957FF"></path>
            <path d="M184.09,-0.0001406083 C180.9475,-0.0001406083 178.4,2.54749977 178.4,5.69 L178.4,30.69 C176.281483,28.15434 173.614287,26.1334261 170.6,24.78 C167.118906,23.185618 163.328636,22.3797588 159.5,22.42 C154.278805,22.34025 149.127815,23.6297214 144.56,26.16 C140.188741,28.5934557 136.593993,32.2124691 134.19,36.6 C131.442282,41.3066265 129.973663,46.6501944 129.93,52.1 C129.977076,57.5682665 131.445099,62.930341 134.19,67.66 C136.577445,72.0803359 140.174404,75.7293247 144.56,78.18 C149.127297,80.7115911 154.278643,82.0011516 159.5,81.92 C163.45723,81.968383 167.372212,81.1025697 170.94,79.39 C174.011035,77.942762 176.709981,75.8116552 178.83,73.16 L178.83,75.8 C178.83,78.8375661 181.292434,81.3 184.33,81.3 C187.367566,81.3 189.83,78.8375661 189.83,75.8 L189.83,5.69 C189.827376,4.1730439 189.220181,2.71970746 188.142848,1.6517584 C187.065514,0.583809325 185.606921,-0.0106475913 184.09,-0.0001406083 Z M169.5,69.36 C166.746021,71.0173883 163.583954,71.8728437 160.37,71.83 C157.079604,71.8786562 153.838831,71.0243648 151,69.36 C148.193891,67.6895589 145.913841,65.2639731 144.42,62.36 C142.724975,59.1920713 141.871085,55.6422323 141.94,52.05 C141.872802,48.4611401 142.72664,44.9149584 144.42,41.75 C145.922184,38.8934978 148.203826,36.521699 151,34.91 C153.862295,33.2625975 157.117972,32.4227572 160.42,32.48 C163.631437,32.4399006 166.792499,33.2803141 169.56,34.91 C172.373217,36.5146538 174.656661,38.9058401 176.13,41.79 C177.789158,44.9694841 178.624632,48.5142298 178.56,52.1 C178.627201,55.686045 177.79158,59.2314173 176.13,62.41 C174.651117,65.3245036 172.367543,67.7538376 169.55,69.41 L169.5,69.36 Z" id="Shape" fill="#0957FF"></path>
            <path d="M240.74,26.19 C236.196665,23.6202536 231.048975,22.311753 225.83,22.4 C220.584029,22.3249852 215.410723,23.6321069 210.83,26.19 C206.424842,28.6978524 202.80076,32.3773168 200.36,36.82 C197.80287,41.5023471 196.497442,46.7653939 196.57,52.1 C196.491596,57.487155 197.836934,62.7995159 200.47,67.5 C203.067165,72.032838 206.913435,75.7228959 211.55,78.13 C220.752966,82.6468256 231.417446,83.1429322 241,79.5 C243.316741,78.5617619 245.488439,77.2991466 247.45,75.75 C248.510013,74.9042723 249.181051,73.6642667 249.309261,72.3142874 C249.437471,70.964308 249.011857,69.620151 248.13,68.59 C246.417876,66.5978474 243.456142,66.2702219 241.35,67.84 C237.518813,70.5689462 232.901847,71.9733465 228.2,71.84 C223.217465,72.007657 218.333972,70.422291 214.4,67.36 C210.928644,64.5861893 208.640933,60.5969925 208,56.2 L208.11,56.07 L251.01,56.07 C251.974471,56.0700037 252.899294,55.6861859 253.58034,55.0032645 C254.261385,54.3203431 254.642657,53.3944673 254.64,52.43 C254.750679,47.0073859 253.499142,41.6436559 251,36.83 C248.642803,32.3932846 245.088095,28.7069207 240.74,26.19 L240.74,26.19 Z M244.13,47.39 L243.52,47.6 L208.15,47.6 L208.03,47.47 C208.55924,43.2832119 210.557989,39.4203819 213.67,36.57 C220.698638,30.6575648 230.961362,30.6575648 237.99,36.57 C241.088378,39.4114613 243.088451,43.2523101 243.64,47.42 L244.13,47.34 L244.13,47.39 Z" id="Shape" fill="#0957FF"></path>
            <path d="M333.58,22.4 C329.003189,22.3320932 324.471312,23.3102945 320.33,25.26 C316.831971,26.905316 313.810409,29.4141073 311.55,32.55 C309.699246,29.3965937 306.990795,26.8337957 303.74,25.16 C299.980387,23.2697369 295.817348,22.3224995 291.61,22.4 C287.554963,22.3293029 283.532733,23.1378427 279.82,24.77 C276.909235,26.0768936 274.339248,28.0377492 272.31,30.5 L272.31,28.41 C272.31,25.3724339 269.847566,22.91 266.81,22.91 C263.772434,22.91 261.31,25.3724339 261.31,28.41 L261.31,75.8 C261.315516,78.8226145 263.767381,81.27 266.79,81.27 L267.22,81.27 C270.242619,81.27 272.694484,78.8226145 272.7,75.8 L272.7,51.24 C272.7,45.24 274.22,40.64 277.22,37.46 C280.22,34.28 284.3,32.7 289.4,32.7 C293.99,32.7 297.56,34.06 300.01,36.7 C302.46,39.34 303.72,43.52 303.72,48.92 L303.72,75.8 C303.725516,78.8226145 306.177381,81.27 309.2,81.27 L309.63,81.27 C312.652619,81.27 315.104484,78.8226145 315.11,75.8 L315.11,51.24 C315.11,45.24 316.63,40.63 319.62,37.46 C322.61,34.29 326.71,32.7 331.81,32.7 C336.4,32.7 339.97,34.06 342.42,36.7 C344.87,39.34 346.13,43.52 346.13,48.92 L346.13,75.8 C346.135516,78.8226145 348.587381,81.27 351.61,81.27 L352.04,81.27 C355.062619,81.27 357.514484,78.8226145 357.52,75.8 L357.52,47.8 C357.52,39.48 355.34,33.1 351.04,28.8 C346.74,24.5 340.9,22.4 333.58,22.4 Z" id="Path" fill="#0957FF"></path>
            <path d="M389.84,22.4 C385.356248,22.3748218 380.893818,23.0185712 376.6,24.31 C374.139138,25.0440669 371.767815,26.0502857 369.53,27.31 C367.372446,28.7658584 366.692659,31.6334473 367.967099,33.9028894 C369.241538,36.1723314 372.043889,37.0844734 374.41,36 C375.83507,35.2106155 377.323577,34.5416239 378.86,34 C382.009645,32.912438 385.317879,32.3548704 388.65,32.35 C393.54,32.35 397.29,33.51 399.78,35.79 C402.27,38.07 403.51,41.4 403.51,45.7 L403.51,47.14 C403.51,47.2062742 403.456274,47.26 403.39,47.26 L387.56,47.26 C379.48,47.26 373.47,48.84 369.72,51.97 C365.959928,55.0450027 363.84557,59.6951124 364,64.55 C363.879519,69.468606 366.1074,74.1508693 370,77.16 C373.94,80.32 379.23,81.92 385.73,81.92 C389.710075,82.0113405 393.666098,81.279374 397.35,79.77 C399.961922,78.6771782 402.265907,76.9603482 404.06,74.77 L404.06,75.87 C404.06,78.8633833 406.486617,81.29 409.48,81.29 C412.473383,81.29 414.9,78.8633833 414.9,75.87 L414.9,46.15 C414.9,38.33 412.72,32.34 408.41,28.37 C404.1,24.4 397.86,22.4 389.84,22.4 Z M403.51,55.86 L403.51,63.15 C402.342205,66.1336614 400.236467,68.6570383 397.51,70.34 C394.481437,72.1131733 391.018395,73.0066382 387.51,72.92 C383.66,72.92 380.63,72.11 378.51,70.53 C376.441686,69.0605592 375.256505,66.6450479 375.36,64.11 C375.36,58.48 379.51,55.74 388.06,55.74 L403.45,55.74 C403.492581,55.7640394 403.516317,55.8115114 403.51,55.86 Z" id="Shape" fill="#0957FF"></path>
            <path d="M476.17,22.94 C473.176617,22.94 470.75,25.3666167 470.75,28.36 L470.75,30.89 C468.529399,28.2417712 465.712281,26.1580633 462.53,24.81 C458.840412,23.1784684 454.843991,22.3566787 450.81,22.4 C445.734837,22.3207048 440.722284,23.5282587 436.24,25.91 C431.891247,28.1841991 428.282925,31.6537393 425.84,35.91 C423.24233,40.3603894 421.914212,45.4376706 422,50.59 C421.9166,55.7509802 423.251796,60.8357947 425.86,65.29 C428.317329,69.5349903 431.921944,73.0009662 436.26,75.29 C440.730533,77.7087968 445.747664,78.9381144 450.83,78.86 C454.705766,78.904849 458.548054,78.1384352 462.11,76.61 C465.218401,75.3263941 467.99235,73.3493995 470.22,70.83 L470.22,74.04 C470.22,80.36 468.65,85.11 465.56,88.18 C462.47,91.25 457.56,92.79 451.04,92.79 C446.955802,92.8052402 442.898488,92.1290213 439.04,90.79 C437.323869,90.2061992 435.652743,89.4976417 434.04,88.67 C431.579076,87.3026505 428.479514,88.076448 426.95,90.44 C426.204579,91.6317984 425.970304,93.0734951 426.3,94.44 C426.608518,95.7820177 427.449639,96.9408157 428.63,97.65 C430.866274,98.92399 433.255423,99.9085476 435.74,100.58 C440.801717,102.11999 446.069491,102.87542 451.36,102.82 C461.36,102.82 468.94,100.35 473.99,95.49 C479.04,90.63 481.61,83.01 481.61,72.89 L481.61,28.36 C481.61,26.9190547 481.036231,25.5374169 480.015454,24.5203928 C478.994677,23.5033688 477.610936,22.9346829 476.17,22.94 Z M470.42,50.59 C470.481982,53.8881292 469.645437,57.1409733 468,60 C466.459303,62.7407791 464.165417,64.9826109 461.39,66.46 C458.520672,68.0543224 455.282057,68.8648385 452,68.81 C448.700554,68.8721108 445.442402,68.0687781 442.55,66.48 C439.771838,64.9972177 437.477666,62.748165 435.94,60 C434.273577,57.140128 433.419541,53.879575 433.47,50.57 C433.47,44.97 435.15,40.68 438.6,37.47 C442.32,34.01 446.45,32.47 452,32.47 C456.856858,32.262602 461.583405,34.072153 465.06,37.47 C468.657986,40.863751 470.612417,45.6477308 470.42,50.59 Z" id="Shape" fill="#0957FF"></path>
            <path d="M497.5,22.94 C494.3575,22.94 491.81,25.4874998 491.81,28.63 L491.81,75.63 C491.81,78.7725002 494.3575,81.32 497.5,81.32 C500.6425,81.32 503.19,78.7725002 503.19,75.63 L503.19,28.63 C503.19,25.4874998 500.6425,22.94 497.5,22.94 Z" id="Path" fill="#0957FF"></path>
            <path d="M561.86,66 C559.793844,64.6729048 557.08151,64.96872 555.35,66.71 C554.111129,67.9948083 552.668336,69.065922 551.08,69.88 C548.402437,71.2309348 545.438833,71.9169542 542.44,71.88 C538.993851,71.9319995 535.592016,71.0987565 532.56,69.46 C529.674475,67.8595314 527.30517,65.4694124 525.73,62.57 C524.026748,59.3655614 523.172933,55.7781613 523.25,52.15 C523.182802,48.5611401 524.03664,45.0149584 525.73,41.85 C527.302013,38.9482418 529.672102,36.5573325 532.56,34.96 C535.591084,33.3177668 538.992971,32.4810677 542.44,32.53 C545.438199,32.4988957 548.400437,33.184599 551.08,34.53 C552.645646,35.3399102 554.070572,36.3967869 555.3,37.66 C556.739947,39.0904361 558.870357,39.5728917 560.786085,38.9023866 C562.701814,38.2318815 564.066372,36.5261874 564.3,34.51 C564.485198,32.9064478 563.937854,31.3048255 562.81,30.15 C561.029938,28.318241 558.958524,26.7942482 556.68,25.64 C552.296471,23.4619231 547.45414,22.3679404 542.56,22.45 C537.032168,22.3577539 531.570369,23.6612942 526.68,26.24 C522.124094,28.6847554 518.334077,32.3432461 515.73,36.81 C513.042566,41.4710448 511.660793,46.7701441 511.73,52.15 C511.661954,57.5328782 513.043587,62.8348962 515.73,67.5 C518.339162,71.9755145 522.126764,75.6489687 526.68,78.12 C531.557481,80.7389509 537.024676,82.0644359 542.56,81.97 C547.464243,82.052159 552.314481,80.93657 556.69,78.72 C558.976929,77.540343 561.054582,75.993083 562.84,74.14 C563.956013,72.9918805 564.489538,71.398662 564.29,69.81 C564.104433,68.2355146 563.209403,66.8321962 561.86,66 Z" id="Path" fill="#0957FF"></path>
            <path d="M121.74,46.79 L105.14,38.65 C104.948723,38.5512659 104.794411,38.3934468 104.7,38.2 L96.53,21.61 C95.5378484,19.5913814 93.4842634,18.312494 91.235,18.312494 C88.9857366,18.312494 86.9321516,19.5913814 85.94,21.61 L77.79,38.21 C77.6968831,38.4077583 77.5377583,38.5668831 77.34,38.66 L60.75,46.83 C58.7313814,47.8221516 57.452494,49.8757366 57.452494,52.125 C57.452494,54.3742634 58.7313814,56.4278484 60.75,57.42 L77.35,65.56 C77.5417926,65.6613981 77.6986019,65.8182074 77.8,66.01 L86,82.6 C86.9954749,84.6176158 89.050168,85.8950239 91.3,85.8950239 C93.549832,85.8950239 95.6045251,84.6176158 96.6,82.6 L104.71,66 C104.806995,65.804999 104.964999,65.6469946 105.16,65.55 L121.75,57.38 C123.767683,56.3859437 125.044633,54.3311505 125.042512,52.0818862 C125.040385,49.8326219 123.759557,47.780244 121.74,46.79 L121.74,46.79 Z M109.38,48 L101.7,54.71 C100.15397,56.0609647 99.0990217,57.8860246 98.7,59.9 L96.7,69.9 C96.6452118,70.190669 96.4287641,70.4242615 96.143106,70.5010055 C95.8574478,70.5777495 95.5530784,70.484078 95.36,70.26 L88.64,62.57 C87.2882699,61.0299453 85.4685033,59.9760264 83.46,59.57 L73.46,57.57 C73.169331,57.5152118 72.9357385,57.2987641 72.8589945,57.013106 C72.7822505,56.7274478 72.875922,56.4230784 73.1,56.23 L80.79,49.51 C82.3300547,48.1582699 83.3839736,46.3385033 83.79,44.33 L85.79,34.33 C85.8584477,34.0532809 86.0741726,33.8370179 86.3507203,33.767881 C86.627268,33.6987441 86.9193842,33.7880468 87.11,34 L93.83,41.69 C95.1822048,43.2294768 97.0017618,44.2832743 99.01,44.69 L109.01,46.69 C109.288952,46.7498435 109.51195,46.9590199 109.589497,47.2335771 C109.667044,47.5081344 109.586426,47.8030651 109.38,48 L109.38,48 Z" id="Shape" fill="url(#linearGradient-1)"></path>
        </g>
    </g>
</svg>